 <svg  version="1.0" xmlns="http://www.w3.org/2000/svg"  width="241.000000pt" height="166.000000pt" viewBox="0 0 241.000000 166.000000"  preserveAspectRatio="xMidYMid meet">  <g transform="translate(0.000000,166.000000) scale(0.100000,-0.100000)" fill="#e60050" stroke="none"> <path d="M901 913 c-13 -82 -26 -154 -29 -160 -3 -9 8 -13 36 -13 l39 0 12 60 12 60 61 0 c57 0 60 -1 55 -22 -3 -13 -9 -40 -12 -60 l-7 -38 40 0 39 0 7 51 c4 29 10 65 13 80 5 25 3 29 -18 29 -23 0 -23 1 9 31 17 16 32 34 32 40 0 5 -17 9 -39 9 -33 0 -42 -5 -66 -40 -25 -36 -32 -40 -70 -40 l-42 0 18 78 c10 42 18 78 19 80 0 1 -19 2 -43 2 l-43 0 -23 -147z"/> <path d="M2123 928 l-21 -132 21 -27 c19 -24 29 -28 75 -28 46 -1 52 1 52 19 0 15 -7 20 -29 20 -17 0 -32 4 -36 9 -3 6 0 41 6 80 l12 70 41 3 c29 2 42 8 44 21 3 14 -4 17 -37 17 l-41 0 6 40 7 40 -39 0 -39 0 -22 -132z"/> <path d="M222 951 c-32 -27 -35 -37 -58 -157 -13 -71 -24 -130 -24 -131 0 -2 18 -3 40 -3 22 0 40 3 40 7 0 30 44 251 52 261 15 18 122 17 115 -2 -3 -7 -9 -35 -12 -62 -11 -71 -20 -84 -59 -84 -29 0 -46 -13 -46 -36 0 -2 24 -4 53 -4 47 0 57 4 86 34 26 27 36 48 47 107 8 41 14 80 14 87 0 9 -28 12 -107 12 -104 -1 -109 -2 -141 -29z"/> <path d="M497 960 c-5 -18 0 -20 39 -20 37 0 44 3 44 20 0 17 -7 20 -39 20 -30 0 -40 -4 -44 -20z"/> <path d="M632 949 c-29 -26 -35 -41 -48 -112 -7 -45 -14 -85 -14 -89 0 -5 63 -8 140 -8 133 0 140 1 140 20 0 19 -7 20 -101 20 -100 0 -101 0 -96 23 4 12 9 42 13 67 9 62 18 70 81 70 50 0 54 -2 48 -20 -6 -18 -2 -20 33 -20 36 0 40 3 46 31 3 17 6 35 6 40 0 5 -48 9 -107 9 -106 -1 -109 -1 -141 -31z"/> <path d="M1215 968 c-2 -7 -11 -58 -20 -112 -9 -55 -18 -103 -21 -108 -3 -4 15 -8 39 -8 l45 0 12 100 13 100 58 0 c38 0 59 -4 62 -13 3 -8 -3 -53 -13 -100 l-17 -87 38 0 c37 0 38 0 48 53 24 123 24 124 0 156 l-23 31 -108 0 c-78 0 -110 -4 -113 -12z"/> <path d="M1548 948 c-30 -28 -38 -44 -48 -98 -6 -36 -14 -75 -17 -87 l-5 -23 141 0 c134 0 141 1 141 20 0 19 -7 20 -100 20 -99 0 -100 0 -95 23 3 12 10 44 15 72 6 27 16 53 23 57 7 4 33 8 60 8 45 0 47 -1 47 -28 0 -37 -17 -52 -56 -52 -27 0 -44 -13 -44 -36 0 -2 24 -4 53 -4 67 1 108 35 125 103 7 25 12 48 12 51 0 3 -49 6 -108 6 -109 0 -109 0 -144 -32z"/> <path d="M1853 950 c-28 -25 -51 -80 -53 -122 0 -5 45 -8 100 -8 55 0 100 -4 100 -8 0 -24 -30 -32 -117 -32 -86 0 -93 -1 -93 -20 0 -19 7 -20 108 -20 105 1 108 1 140 30 18 17 35 44 39 60 l6 30 -100 0 -100 0 5 28 c8 44 20 52 79 52 50 0 54 -2 48 -20 -6 -18 -2 -20 33 -20 36 0 40 3 46 31 3 17 6 35 6 40 0 5 -48 9 -107 9 -105 -1 -109 -1 -140 -30z"/> <path d="M486 878 c-3 -13 -7 -37 -10 -54 -3 -18 -8 -43 -12 -58 -6 -25 -4 -26 33 -26 l39 0 15 80 16 80 -38 0 c-32 0 -39 -4 -43 -22z"/> </g> </svg> 